<svg xmlns="http://www.w3.org/2000/svg" viewBox="0 0 180 180">
  <!-- Background -->
  <rect width="180" height="180" rx="40" fill="#3b82f6"/>
  
  <!-- Document/Policy icon -->
  <rect x="45" y="35" width="90" height="110" rx="6" fill="#ffffff"/>
  
  <!-- Lines representing policy text -->
  <rect x="60" y="55" width="60" height="6" rx="3" fill="#3b82f6"/>
  <rect x="60" y="70" width="50" height="6" rx="3" fill="#3b82f6"/>
  <rect x="60" y="85" width="55" height="6" rx="3" fill="#3b82f6"/>
  <rect x="60" y="100" width="45" height="6" rx="3" fill="#3b82f6"/>
  <rect x="60" y="115" width="50" height="6" rx="3" fill="#60a5fa"/>
  
  <!-- Shield icon overlay (security/IAM theme) -->
  <path d="M90 135 L70 125 L70 105 C70 98 75 95 90 95 C105 95 110 98 110 105 L110 125 Z" fill="#f59e0b" stroke="#ffffff" stroke-width="3"/>
  
  <!-- Lock icon inside shield -->
  <circle cx="90" cy="110" r="5" fill="#ffffff"/>
  <rect x="87" y="110" width="6" height="10" rx="1" fill="#ffffff"/>
</svg>
